<?xml version="1.0" encoding="iso-8859-1"?>
<!-- Generator: Adobe Illustrator 19.0.0, SVG Export Plug-In . SVG Version: 6.00 Build 0)  -->
<svg version="1.1" id="Capa_1" xmlns="http://www.w3.org/2000/svg" xmlns:xlink="http://www.w3.org/1999/xlink" x="0px" y="0px"
	 viewBox="0 0 422.4 422.4" style="enable-background:new 0 0 422.4 422.4;" xml:space="preserve">
<circle style="fill:#2FBCD3;" cx="210.933" cy="211.2" r="29.6"/>
<g>
	<path style="fill:#06383D;" d="M390.133,98.4c-6.4-9.6-20-20.8-50.4-20.8c-20.8,0.8-40.8,4-60.8,10.4c-15.2-53.6-40-88-68-88
		s-52.8,34.4-68,88c-19.2-6.4-40-9.6-60.8-10.4c-31.2,0-44.8,11.2-51.2,20.8c-12,20-4,50.4,23.2,85.6c7.2,9.6,15.2,18.4,23.2,27.2
		c-8,8.8-16,17.6-23.2,26.4c-27.2,36-35.2,66.4-22.4,86.4c6.4,9.6,20,20.8,51.2,20.8c20.8-0.8,40.8-4,60.8-10.4
		c15.2,53.6,40,88,68,88s53.6-34.4,68-88c19.2,6.4,40,9.6,60.8,10.4l0,0c31.2,0,44.8-11.2,50.4-20.8c12.8-20,4.8-50.4-22.4-86.4
		c-7.2-9.6-15.2-18.4-23.2-26.4c8-8.8,16-17.6,23.2-27.2C394.933,148.8,402.933,118.4,390.133,98.4z M82.133,329.6
		c-12.8,0-30.4-2.4-37.6-13.6c-8.8-13.6-0.8-38.4,21.6-68c7.2-8.8,14.4-17.6,22.4-25.6c12.8,12,26.4,23.2,40,33.6
		c1.6,21.6,4.8,42.4,9.6,63.2C120.533,325.6,101.333,328.8,82.133,329.6z M127.733,235.2c-9.6-8-19.2-16-28-24c8.8-8,17.6-16,28-24
		c0,8-0.8,16-0.8,24S127.733,227.2,127.733,235.2z M129.333,166.4c-14.4,10.4-27.2,21.6-40.8,33.6c-8-8-15.2-16.8-21.6-25.6
		c-22.4-29.6-30.4-54.4-21.6-68c7.2-11.2,24-13.6,37.6-13.6c19.2,0.8,38.4,4,56.8,9.6C134.133,124,130.933,144.8,129.333,166.4
		L129.333,166.4z M274.933,153.6c-6.4-4.8-12.8-8.8-20-12.8c-8.8-5.6-17.6-11.2-27.2-16c12.8-6.4,25.6-12,39.2-16.8
		C270.933,123.2,273.333,138.4,274.933,153.6z M210.933,15.2c19.2,0,40,28.8,52.8,77.6c-17.6,6.4-36,13.6-52.8,22.4
		c-16.8-8.8-35.2-16.8-52.8-23.2C170.933,44,191.733,15.2,210.933,15.2z M154.133,108c13.6,4.8,26.4,10.4,39.2,16.8
		c-8.8,4.8-17.6,10.4-27.2,16c-7.2,4-13.6,8.8-20,12.8C148.533,138.4,150.933,123.2,154.133,108z M146.933,268.8
		c6.4,4.8,12.8,8.8,20,13.6c8.8,5.6,17.6,11.2,27.2,16c-13.6,6.4-26.4,12-39.2,16.8C150.933,299.2,148.533,284,146.933,268.8z
		 M210.933,407.2c-19.2,0-40-28.8-52.8-77.6c18.4-6.4,36-13.6,52.8-22.4c16.8,8.8,35.2,16,52.8,23.2
		C250.933,378.4,230.133,407.2,210.933,407.2z M267.733,314.4c-12.8-4.8-25.6-10.4-39.2-16.8c8.8-4.8,17.6-10.4,27.2-16
		c6.4-4,13.6-8.8,20-13.6C273.333,284,270.933,299.2,267.733,314.4z M277.333,248c-9.6,7.2-20,13.6-30.4,20.8
		c-12,7.2-24,14.4-36,20.8c-12-6.4-24-13.6-36-20.8c-10.4-6.4-20.8-13.6-30.4-20.8c-0.8-12-1.6-24-1.6-36.8s0.8-24.8,1.6-36.8
		c9.6-7.2,20-13.6,30.4-20.8c12-7.2,24-14.4,36-20.8c12,6.4,24,12.8,36,20.8c10.4,6.4,20.8,13.6,30.4,20.8c0.8,12,1.6,24,1.6,36.8
		S278.133,236,277.333,248L277.333,248z M354.933,248c22.4,29.6,30.4,54.4,21.6,68c-7.2,11.2-24,13.6-37.6,13.6l0,0
		c-19.2-0.8-38.4-4-56.8-10.4c4.8-20.8,8-41.6,9.6-63.2c14.4-10.4,27.2-21.6,40-33.6C340.533,230.4,347.733,239.2,354.933,248
		L354.933,248z M294.133,187.2c9.6,8,19.2,16,28,24c-8.8,8-17.6,16-28,24c0-8,0.8-16,0.8-24S294.133,195.2,294.133,187.2z
		 M333.333,200c-12.8-12-26.4-23.2-40-33.6c-1.6-20.8-4.8-42.4-9.6-63.2c18.4-6.4,37.6-9.6,56.8-10.4c12.8,0,30.4,2.4,37.6,13.6
		c8.8,13.6,0.8,38.4-21.6,68C347.733,183.2,340.533,192,333.333,200L333.333,200z"/>
	<path style="fill:#06383D;" d="M210.933,173.6c-20.8,0-37.6,16.8-37.6,37.6s16.8,37.6,37.6,37.6s37.6-16.8,37.6-37.6
		S231.733,173.6,210.933,173.6L210.933,173.6z M210.933,232.8c-12,0-21.6-9.6-21.6-21.6s9.6-21.6,21.6-21.6s21.6,9.6,21.6,21.6
		S222.933,232.8,210.933,232.8L210.933,232.8z"/>
</g>
<g>
</g>
<g>
</g>
<g>
</g>
<g>
</g>
<g>
</g>
<g>
</g>
<g>
</g>
<g>
</g>
<g>
</g>
<g>
</g>
<g>
</g>
<g>
</g>
<g>
</g>
<g>
</g>
<g>
</g>
</svg>
